<svg xmlns="http://www.w3.org/2000/svg" viewBox="0 0 553.03 211.17"><defs><style>.cls-1{fill:#1fd661;}.cls-2{fill:#00263a;}</style></defs><title>Asset 1</title><g id="Layer_2" data-name="Layer 2"><g id="Layer_1-2" data-name="Layer 1"><path class="cls-1" d="M107,0A107,107,0,0,0,31.33,30.92a104.62,104.62,0,0,0,0,149.32,108,108,0,0,0,151.3,0,104.6,104.6,0,0,0,0-149.32A107,107,0,0,0,107,0M34.2,105.58C34.2,66,66.85,33.75,107,33.75S179.77,66,179.77,105.58,147.12,177.42,107,177.42,34.2,145.19,34.2,105.58"/><path class="cls-2" d="M423.88,127.86c-5.51-.29-10.25-4.47-10.25-11.88,0-7,5.05-11,10.82-11s11.14,3.13,11.14,11-4.69,11.49-10.16,11.87Zm29.95-36.4a15.2,15.2,0,0,0-4.15-.54,16.5,16.5,0,0,0-9.47,3c-4-2.21-9.26-3.38-15.72-3.38C408,90.52,397.78,100,397.78,116c0,15,9.31,25.78,26.71,25.78l1.26,0c5.44.07,9.56.91,9.56,6.7,0,6.11-4.56,8.07-10.43,8.07s-11.33-2.07-11.33-8.07c0-.24,0-.47,0-.69H397.28c0,.23,0,.46,0,.69,0,13.31,9.89,22.46,27.62,22.46,16.55,0,26.72-6.14,26.72-22.46,0-7-2.3-11.86-6.16-15.08,3.81-4.47,5.76-10.47,5.76-17.38a35.34,35.34,0,0,0-1-8.72,19.31,19.31,0,0,1,3.63.51Z"/><path class="cls-2" d="M368.33,90.4c-4.15,0-10.68,1.64-13.37,7.37V90.91H339.72v50.85h15.76v-22.2c0-10.13,5.7-13.81,12-13.81a21.6,21.6,0,0,1,5,.51V90.91a16.08,16.08,0,0,0-4.15-.51"/><path class="cls-2" d="M385.07,66.14a9.23,9.23,0,1,0,9.33,9.22,9.21,9.21,0,0,0-9.33-9.22"/><rect class="cls-2" x="377.3" y="90.91" width="15.76" height="50.85"/><rect class="cls-2" x="458.3" y="90.92" width="15.76" height="50.85"/><path class="cls-2" d="M466.08,66.14a9.23,9.23,0,1,0,9.33,9.23,9.22,9.22,0,0,0-9.33-9.23"/><path class="cls-2" d="M510.47,89.59c-5.29,0-11.61,2.35-14.41,7.16V90.92H480.82v50.84h15.76V112.6c0-5.11,3.32-8.9,8.5-8.9,5.7,0,8.4,3.79,8.4,8.8v29.26h15.75V109.84c0-11.15-5.8-20.25-18.76-20.25"/><path class="cls-2" d="M294.26,129.08c-10.84,0-22.45-7.13-22.45-23.13s11.61-23.24,22.45-23.24S316.6,90,316.6,106,305,129.08,294.26,129.08m0-63c-21.9,0-40.41,15.67-40.41,40s18.51,39.88,40.41,39.88,40.3-15.67,40.3-39.88-18.51-40-40.3-40"/><path class="cls-2" d="M543.79,140.81a7.19,7.19,0,1,1,7-7.17,7,7,0,0,1-7,7.17m0-16.41a9.23,9.23,0,1,0,9.24,9.24,9.24,9.24,0,0,0-9.24-9.24"/><path class="cls-2" d="M544,133.12h-1.07v-2.36H544a1.15,1.15,0,0,1,1.3,1.18,1.16,1.16,0,0,1-1.3,1.18m3.91-1.21a3.29,3.29,0,0,0-3.41-3.22h-4.16v9.79h2.59v-3.3h.75l1.52,3.3h2.84l-1.9-3.74a3.14,3.14,0,0,0,1.77-2.83"/></g></g></svg>