<svg width="172" height="28" fill="none" xmlns="http://www.w3.org/2000/svg"><path d="M7.397 13.916c.096.363-.03-.175-.065-.386a7.128 7.128 0 0 1-.095-1.358c.052-1.48.63-2.75 1.967-3.4 1.338-.646.504-2.87-.847-2.215-3.092 1.498-3.961 5.01-3.105 8.23.395 1.48 2.536.596 2.145-.87zm6.118-7.167c.194-.649-.158-1.336-.787-1.536-.628-.2-1.294.164-1.487.812-.194.649.158 1.337.787 1.537.628.2 1.294-.164 1.487-.813zm17.739.113v9.722c0 .933.208 1.66.63 2.171.416.511 1.046.767 1.885.767.617 0 1.194-.143 1.733-.426a5.978 5.978 0 0 0 1.529-1.17V6.861h3.566v15.297h-2.18c-.46 0-.765-.224-.908-.673l-.248-1.224c-.308.318-.625.61-.951.875a5.664 5.664 0 0 1-1.047.672 5.833 5.833 0 0 1-2.58.588c-.808 0-1.525-.144-2.146-.426a4.288 4.288 0 0 1-1.568-1.202c-.426-.516-.743-1.13-.96-1.843a8.013 8.013 0 0 1-.326-2.35V6.862h3.57zm19.481-.238c1.108 0 2.111.184 3.01.552.9.367 1.669.888 2.303 1.565.634.677 1.125 1.502 1.472 2.475.348.974.522 2.063.522 3.265 0 1.211-.174 2.305-.522 3.278-.347.974-.838 1.803-1.472 2.49a6.374 6.374 0 0 1-2.302 1.578c-.9.368-1.903.552-3.01.552-1.108 0-2.116-.184-3.02-.552a6.48 6.48 0 0 1-2.32-1.578c-.638-.687-1.137-1.516-1.485-2.49-.352-.973-.525-2.067-.525-3.278 0-1.202.173-2.291.525-3.265.352-.973.847-1.798 1.486-2.475a6.485 6.485 0 0 1 2.32-1.565c.903-.368 1.91-.552 3.018-.552zm0 12.93c1.234 0 2.146-.427 2.737-1.283.59-.857.886-2.108.886-3.758s-.295-2.906-.886-3.772c-.59-.866-1.503-1.296-2.737-1.296-1.25 0-2.176.435-2.77 1.305-.596.87-.896 2.126-.896 3.767 0 1.642.3 2.888.895 3.75.595.856 1.52 1.286 2.771 1.286zm14.96 2.847c-1.28 0-2.267-.377-2.962-1.125-.695-.75-1.038-1.785-1.038-3.108V9.62h-1.503a.708.708 0 0 1-.5-.193c-.139-.13-.208-.323-.208-.583V7.382l2.385-.404.751-4.175a.73.73 0 0 1 .27-.462.841.841 0 0 1 .525-.166h1.85v4.821h3.901V9.62h-3.9v8.292c0 .475.117.852.347 1.117.23.269.539.403.925.403.222 0 .409-.027.556-.08a3.356 3.356 0 0 0 .687-.341.492.492 0 0 1 .26-.08.41.41 0 0 1 .26.08c.066.054.14.134.218.246l1.069 1.79a5.346 5.346 0 0 1-1.79 1.013 6.687 6.687 0 0 1-2.103.341zM78.132 6.624c.933 0 1.794.152 2.575.462.787.31 1.46.758 2.029 1.35.569.592 1.012 1.318 1.33 2.175.316.86.477 1.843.477 2.946 0 .278-.013.512-.035.695-.026.184-.07.328-.13.431a.537.537 0 0 1-.252.224 1.03 1.03 0 0 1-.404.068h-9.157c.105 1.57.517 2.722 1.23 3.457.712.736 1.655 1.104 2.832 1.104.578 0 1.077-.068 1.494-.211a6.823 6.823 0 0 0 1.099-.462c.313-.17.586-.323.825-.462.235-.14.465-.21.687-.21.143 0 .269.03.373.089a.828.828 0 0 1 .274.255l1.038 1.341a6.072 6.072 0 0 1-1.33 1.202 7.314 7.314 0 0 1-1.537.776 8.002 8.002 0 0 1-1.633.408c-.552.08-1.09.121-1.612.121-1.03 0-1.99-.175-2.875-.529a6.446 6.446 0 0 1-2.311-1.565c-.656-.69-1.169-1.547-1.546-2.565-.374-1.018-.565-2.198-.565-3.543 0-1.045.165-2.027.49-2.947a7.085 7.085 0 0 1 1.408-2.4 6.686 6.686 0 0 1 2.237-1.618c.886-.395 1.88-.592 2.989-.592zm.07 2.637c-1.04 0-1.856.305-2.442.91-.587.606-.964 1.467-1.125 2.58h6.702c0-.476-.06-.93-.187-1.35a3.164 3.164 0 0 0-.577-1.113 2.739 2.739 0 0 0-.982-.753c-.395-.18-.86-.274-1.39-.274z" fill="#0A76BD"/><path d="M98.843 4.52c-.104.22-.23.373-.37.463a.898.898 0 0 1-.499.134c-.191 0-.408-.076-.651-.233a22.988 22.988 0 0 0-.852-.516 7.027 7.027 0 0 0-1.147-.516c-.438-.152-.955-.233-1.55-.233-.539 0-1.008.067-1.408.202a2.9 2.9 0 0 0-1.012.56 2.234 2.234 0 0 0-.612.857 2.89 2.89 0 0 0-.204 1.094c0 .507.139.929.412 1.27.274.336.639.627 1.09.865.452.238.97.453 1.547.641.578.189 1.168.39 1.768.606.6.215 1.19.462 1.768.744a6.137 6.137 0 0 1 1.546 1.072c.452.43.817.96 1.09 1.588.274.628.413 1.386.413 2.283a7.67 7.67 0 0 1-.482 2.735 6.26 6.26 0 0 1-1.416 2.22c-.621.632-1.382 1.13-2.276 1.49-.895.362-1.92.542-3.076.542-.664 0-1.32-.068-1.963-.202a10.176 10.176 0 0 1-1.855-.574 9.57 9.57 0 0 1-1.66-.892 8.486 8.486 0 0 1-1.38-1.162l1.125-1.924c.104-.14.234-.256.382-.35a.918.918 0 0 1 .5-.143c.238 0 .499.103.781.305.278.201.608.43.99.677.383.246.83.475 1.343.677.517.202 1.133.305 1.855.305 1.107 0 1.963-.27 2.571-.812.608-.542.908-1.318.908-2.332 0-.565-.14-1.027-.413-1.386a3.316 3.316 0 0 0-1.09-.901 8.173 8.173 0 0 0-1.546-.619 59.087 59.087 0 0 1-1.764-.552 14.875 14.875 0 0 1-1.764-.717 5.67 5.67 0 0 1-1.546-1.09 4.959 4.959 0 0 1-1.09-1.677c-.274-.673-.413-1.498-.413-2.485 0-.785.152-1.551.456-2.296a5.89 5.89 0 0 1 1.33-1.982c.581-.579 1.298-1.04 2.145-1.386.847-.35 1.816-.52 2.902-.52 1.234 0 2.367.197 3.41.596 1.038.4 1.924.956 2.658 1.669l-.951 1.906zm10.221 2.104c.934 0 1.794.152 2.576.462a5.64 5.64 0 0 1 2.028 1.35c.569.592 1.012 1.318 1.329 2.175.317.86.478 1.843.478 2.946 0 .278-.013.512-.035.695a1.182 1.182 0 0 1-.13.431.539.539 0 0 1-.252.224 1.03 1.03 0 0 1-.404.068h-9.157c.105 1.57.517 2.722 1.23 3.457.712.736 1.655 1.104 2.832 1.104.578 0 1.077-.068 1.494-.211a6.835 6.835 0 0 0 1.099-.462c.313-.17.587-.323.825-.462.235-.14.465-.21.687-.21.143 0 .269.03.373.089a.82.82 0 0 1 .274.255l1.038 1.341a6.062 6.062 0 0 1-1.329 1.202 7.3 7.3 0 0 1-1.538.776 7.995 7.995 0 0 1-1.633.408c-.552.08-1.09.121-1.612.121-1.029 0-1.989-.175-2.875-.529a6.449 6.449 0 0 1-2.311-1.565c-.656-.69-1.168-1.547-1.546-2.565-.374-1.018-.565-2.198-.565-3.543 0-1.045.165-2.027.491-2.947a7.095 7.095 0 0 1 1.407-2.4 6.696 6.696 0 0 1 2.237-1.618c.891-.395 1.885-.592 2.989-.592zm.074 2.637c-1.039 0-1.855.305-2.442.91-.586.606-.964 1.467-1.125 2.58h6.703c0-.476-.061-.93-.187-1.35a3.16 3.16 0 0 0-.578-1.113 2.734 2.734 0 0 0-.981-.753c-.4-.18-.86-.274-1.39-.274zm20.854 12.899h-1.603c-.339 0-.604-.055-.795-.158-.191-.103-.339-.314-.434-.632l-.317-1.09c-.374.35-.743.655-1.104.915-.36.264-.734.484-1.12.664a5.63 5.63 0 0 1-1.23.403 7.15 7.15 0 0 1-1.442.135 5.503 5.503 0 0 1-1.733-.26 3.673 3.673 0 0 1-1.364-.785 3.535 3.535 0 0 1-.886-1.3c-.213-.521-.317-1.122-.317-1.813 0-.578.148-1.148.439-1.713.295-.565.782-1.072 1.464-1.525.682-.452 1.594-.83 2.727-1.13 1.139-.3 2.546-.448 4.231-.448v-.902c0-1.031-.208-1.794-.63-2.291-.417-.498-1.029-.745-1.828-.745-.578 0-1.06.072-1.442.211a5.318 5.318 0 0 0-1.004.47 29.18 29.18 0 0 1-.786.472c-.239.139-.504.21-.795.21-.239 0-.447-.062-.621-.192a1.48 1.48 0 0 1-.417-.476L118.333 9c1.703-1.61 3.762-2.416 6.168-2.416.865 0 1.638.148 2.32.44a4.86 4.86 0 0 1 1.725 1.223c.473.52.829 1.144 1.077 1.87.247.727.369 1.52.369 2.386v9.656zm-6.933-2.297a4.75 4.75 0 0 0 1.012-.103c.309-.068.6-.17.874-.31.273-.139.538-.305.794-.506a7.37 7.37 0 0 0 .774-.714v-2.56c-1.039 0-1.907.067-2.607.201-.699.135-1.259.31-1.681.52-.425.212-.725.458-.903.736-.178.278-.27.588-.27.915 0 .65.187 1.117.557 1.395.369.287.855.426 1.45.426zm10.443 2.297V6.861h2.094c.365 0 .621.071.764.21.143.14.239.377.287.718l.217 1.848c.53-.947 1.151-1.691 1.864-2.238a3.835 3.835 0 0 1 2.397-.82c.73 0 1.338.174 1.82.52l-.46 2.757c-.031.18-.091.305-.187.382-.095.076-.226.112-.391.112-.143 0-.343-.036-.591-.103-.252-.068-.582-.103-.994-.103-.743 0-1.377.21-1.907.632-.53.421-.978 1.04-1.342 1.857v9.53h-3.571v-.005zm22.21-12.06a1.853 1.853 0 0 1-.309.327c-.1.08-.247.121-.439.121a.978.978 0 0 1-.534-.17 23.063 23.063 0 0 0-.621-.386 4.383 4.383 0 0 0-.86-.386c-.33-.112-.743-.17-1.234-.17-.625 0-1.173.116-1.646.35-.473.233-.864.57-1.177 1.004-.313.44-.547.969-.7 1.588a8.897 8.897 0 0 0-.23 2.108c0 .816.083 1.542.252 2.175.17.637.413 1.17.73 1.6.317.431.704.763 1.155.983.452.224.965.336 1.529.336.569 0 1.03-.071 1.382-.215a4.36 4.36 0 0 0 .886-.475c.239-.175.452-.332.63-.476a.93.93 0 0 1 .599-.215c.287 0 .504.117.652.34l1.025 1.342a6.626 6.626 0 0 1-2.724 1.978 6.95 6.95 0 0 1-1.537.408c-.53.08-1.056.12-1.573.12a6.357 6.357 0 0 1-2.584-.528 6.033 6.033 0 0 1-2.116-1.543c-.604-.677-1.077-1.503-1.429-2.485-.352-.977-.526-2.094-.526-3.345 0-1.122.157-2.167.47-3.126.312-.96.773-1.79 1.381-2.49a6.334 6.334 0 0 1 2.254-1.645c.895-.4 1.925-.597 3.093-.597 1.108 0 2.076.184 2.91.552a7.078 7.078 0 0 1 2.246 1.579l-.955 1.34zm3.366 12.06V.004h3.566v8.512a7.615 7.615 0 0 1 1.907-1.373c.695-.35 1.508-.52 2.441-.52.808 0 1.525.144 2.151.426a4.3 4.3 0 0 1 1.568 1.193 5.28 5.28 0 0 1 .951 1.834 8.03 8.03 0 0 1 .326 2.35v9.737h-3.566v-9.741c0-.933-.209-1.66-.63-2.17-.417-.512-1.047-.768-1.885-.768-.617 0-1.195.144-1.734.43a6.138 6.138 0 0 0-1.529 1.18V22.16h-3.566zm-141.39-1.248a8.98 8.98 0 0 1-5.156 1.62c-5.122 0-9.292-4.302-9.292-9.594 0-5.287 4.166-9.592 9.292-9.592 5.121 0 9.291 4.3 9.291 9.592a9.72 9.72 0 0 1-1.772 5.633l.165.121 6.39 6.396-2.594-6.965a13.207 13.207 0 0 0 1.052-5.185C25.064 5.803 19.443 0 12.532 0S0 5.803 0 12.938c0 7.136 5.62 12.939 12.532 12.939a12.14 12.14 0 0 0 5.425-1.278l6.694 2.498-6.446-6.633-.517.448z" fill="#262A61"/></svg>